<svg xmlns="http://www.w3.org/2000/svg" class="icon icon-tabler icon-tabler-certificate" width="250px" height="250px" viewBox="0 0 24 24" stroke-width="1.62" stroke="rgba(15, 118, 110, 1)" fill="none" stroke-linecap="round" stroke-linejoin="round"><rect x="0" y="0" width="100%" height="100%" stroke="none" stroke-width="0" fill="rgba(255, 255, 255, 1)" rx="5" ry="5"/><g transform="translate(-2.88, -2.88) scale(1.24)"><path stroke="none" d="M0 0h24v24H0z" fill="none"/><circle cx="15" cy="15" r="3"/><path d="M13 17.5v4.5l2 -1.5l2 1.5v-4.5"/><path d="M10 19h-5a2 2 0 0 1 -2 -2v-10c0 -1.1 .9 -2 2 -2h14a2 2 0 0 1 2 2v10a2 2 0 0 1 -1 1.73"/><line x1="6" y1="9" x2="18" y2="9"/><line x1="6" y1="12" x2="9" y2="12"/><line x1="6" y1="15" x2="8" y2="15"/></g>
  
  
  
  
  
  
  
</svg>